<svg width="41" height="41" viewBox="0 0 41 41" fill="none" xmlns="http://www.w3.org/2000/svg">
<g clip-path="url(#clip0_14303_2091)">
<g clip-path="url(#clip1_14303_2091)">
<path d="M11.9022 36.7683C10.066 34.6817 8.22977 32.5122 7.0617 29.9249C5.89363 27.171 5.55956 24.0001 6.14398 20.9958C6.72841 17.9915 8.06313 15.1539 9.98227 12.734C9.81563 14.8198 10.5667 16.9901 11.9851 18.5752C11.1511 14.5694 12.4858 10.2304 15.1568 7.05874C17.8278 3.88703 21.4987 1.80124 25.3378 0.382812C23.4186 2.38567 23.1683 5.5566 23.9193 8.22759C24.6704 10.8978 26.2555 13.2347 27.6747 15.6546C29.0931 18.0744 30.4286 20.578 30.5115 23.3319C31.2626 21.9135 32.0974 20.4951 32.5981 18.9092C33.0988 17.3234 33.3492 15.6546 32.9322 14.0687C34.4343 15.9049 35.2691 17.7412 35.6861 20.0773C36.1031 22.4142 36.0202 24.8341 35.7698 27.171C35.4357 29.7583 34.7684 32.4285 33.3492 34.598C31.6804 37.1853 29.0102 39.0215 26.0888 40.0229C20.915 40.9406 15.8242 40.1896 11.9022 36.7683Z" fill="#F3705A"/>
<path d="M18.244 39.8572C25.0873 42.5282 31.847 34.4331 28.0916 28.1742C28.0916 28.0905 28.0079 28.0905 28.0079 28.0075C28.342 31.4288 27.5072 33.9324 25.9221 35.3508C26.7561 33.348 26.1725 31.0118 25.171 29.009C24.1696 27.089 22.7504 25.3365 21.6661 23.5011C20.5809 21.5812 19.7461 19.4117 20.2468 17.2422C18.244 18.7443 16.8256 20.9975 16.2411 23.4174C15.6575 25.8373 15.9908 28.5082 17.0759 30.7615C15.8241 29.843 14.9064 28.3408 14.8227 26.7558C13.4872 28.3408 12.6532 30.4274 12.7361 32.514C12.7361 35.7686 15.3234 38.6892 18.244 39.8572Z" fill="#FFD15C"/>
</g>
</g>
<defs>
<clipPath id="clip0_14303_2091">
<rect width="40" height="40" fill="white" transform="translate(0.919922 0.382812)"/>
</clipPath>
<clipPath id="clip1_14303_2091">
<rect width="40" height="40" fill="white" transform="translate(0.919922 0.382812)"/>
</clipPath>
</defs>
</svg>
