<svg width="181" height="41" viewBox="0 0 181 41" fill="none" xmlns="http://www.w3.org/2000/svg">
<path d="M40 32.2055C40 32.8327 39.7508 33.4342 39.3074 33.8777C38.8639 34.3212 38.2624 34.5703 37.6352 34.5703H2.36406C1.737 34.5701 1.1357 34.3209 0.69237 33.8774C0.249045 33.4339 -3.4218e-08 32.8325 0 32.2055L0 9.34922C0 8.72202 0.249152 8.12052 0.692647 7.67702C1.13614 7.23353 1.73765 6.98438 2.36484 6.98438H37.6359C38.263 6.98458 38.8643 7.23383 39.3076 7.6773C39.751 8.12077 40 8.72216 40 9.34922V32.2055Z" fill="#306FC5"/>
<path opacity="0.15" d="M1.68125 32.2055V9.34922C1.68125 8.72216 1.9303 8.12077 2.37362 7.6773C2.81695 7.23383 3.41825 6.98458 4.04531 6.98438H2.36406C2.05354 6.98437 1.74607 7.04555 1.45919 7.1644C1.17232 7.28326 0.911675 7.45746 0.692142 7.67707C0.472608 7.89668 0.298489 8.15738 0.179729 8.44429C0.0609701 8.7312 -0.000102488 9.0387 1.29101e-07 9.34922V32.2055C1.29101e-07 32.8327 0.249153 33.4342 0.692647 33.8777C1.13614 34.3212 1.73765 34.5703 2.36484 34.5703H4.04609C3.4189 34.5703 2.81739 34.3212 2.3739 33.8777C1.9304 33.4342 1.68125 32.8327 1.68125 32.2055Z" fill="#202121"/>
<path d="M5.82715 18.0211H7.02246L6.4248 16.5L5.82715 18.0211ZM12.1834 23.1266V23.8336H14.1936V24.5945H12.1834V25.4094H14.41L15.4428 24.2687L14.4646 23.1273L12.1834 23.1266ZM27.8826 16.5L27.2303 18.0211H28.4803L27.8826 16.5ZM17.9959 25.8438V22.7469L16.5834 24.268L17.9959 25.8438ZM20.6576 23.6164C20.6029 23.2906 20.3857 23.1273 20.06 23.1273H18.9193V24.1047H20.1146C20.4404 24.1047 20.6576 23.9422 20.6576 23.6164ZM24.46 23.9969C24.5693 23.9422 24.6232 23.7789 24.6232 23.6164C24.6779 23.3992 24.5686 23.2906 24.46 23.2359C24.3514 23.1812 24.1881 23.1812 24.0256 23.1812H22.9396V24.0508H24.0256C24.1881 24.0508 24.3514 24.0508 24.46 23.9961V23.9969Z" fill="white"/>
<path d="M32.2826 15.0859V15.7375L31.9568 15.0859H29.4037V15.7375L29.0779 15.0859H25.6014C25.0037 15.0859 24.5147 15.1945 24.0803 15.4117V15.0859H21.635V15.4117C21.3639 15.1945 21.0381 15.0859 20.6037 15.0859H11.8576L11.2592 16.4438L10.6623 15.0859H7.89043V15.7375L7.61934 15.0859H5.22949L4.14355 17.6391L2.89355 20.4094L2.87012 20.4641H5.6998L5.71934 20.4094L6.04512 19.5945H6.75137L7.07793 20.4641H10.2279V19.8117L10.4998 20.4641H12.0748L12.3467 19.8117V20.4641H19.8982V19.0516H20.0068C20.1154 19.0516 20.1154 19.0516 20.1154 19.2141V20.4094H24.0264V20.0836C24.3521 20.2469 24.8412 20.4094 25.4928 20.4094H27.1232L27.449 19.5406H28.2092L28.535 20.4094H31.6857V19.5945L32.1748 20.4094H34.7279V15.0859H32.2826ZM13.867 19.6484H12.9975V16.6617L12.9428 16.7867V16.7852L11.6795 19.65H10.8795L9.5748 16.6617V19.65H7.72949L7.34902 18.8352H5.50137L5.1209 19.65H4.16621L5.77324 15.8469H7.13105L8.65215 19.4875V15.8469H10.0912L10.117 15.9016H10.1186L10.8037 17.3938L11.2959 18.5109L11.3139 18.4547L12.3998 15.8469H13.867V19.65V19.6484ZM17.6154 16.6609H15.4967V17.3672H17.5607V18.1281H15.4967V18.8891H17.6154V19.7031H14.5732V15.8461H17.6154V16.6609ZM21.4904 18.0617L21.4951 18.0656C21.5154 18.0867 21.5334 18.1086 21.5482 18.1297C21.6521 18.2664 21.7357 18.4688 21.7404 18.7664L21.7412 18.782L21.742 18.7898V18.7953L21.7436 18.8891V19.6492H20.9295V19.2148C20.9295 18.9969 20.9295 18.6711 20.7654 18.4539C20.72 18.4073 20.6659 18.3702 20.6061 18.3445C20.5248 18.2922 20.3701 18.2914 20.1139 18.2914H19.1365V19.6492H18.2131V15.8469H20.2771C20.7662 15.8469 21.092 15.8469 21.3631 16.0094C21.6303 16.1695 21.7904 16.4344 21.7967 16.8539C21.7842 17.432 21.4139 17.7492 21.1467 17.8563C21.1467 17.8563 21.3279 17.893 21.4904 18.0617ZM23.3193 19.6492H22.3959V15.8461H23.3193V19.6492ZM33.9131 19.6492H32.7178L30.9787 16.7695V19.1602L30.9732 19.1547V19.6516H30.0553V19.6492H29.1326L28.8068 18.8344H26.9053L26.5795 19.7031H25.5467C25.1123 19.7031 24.5686 19.5945 24.2428 19.2688C23.917 18.943 23.7537 18.5086 23.7537 17.8023C23.7537 17.2594 23.8631 16.7156 24.2428 16.2813C24.5139 15.9547 25.0029 15.8461 25.6006 15.8461H26.4701V16.6609H25.6006C25.2748 16.6609 25.1123 16.7156 24.8943 16.8789C24.7318 17.0414 24.6232 17.3672 24.6232 17.7477C24.6232 18.182 24.6779 18.4539 24.8943 18.6711C25.0584 18.8344 25.2748 18.8891 25.5467 18.8891H25.9264L27.1764 15.9008H28.5342L30.0553 19.5406V15.9008H31.4131L32.9881 18.5625V15.9008H33.9123V19.6492H33.9131Z" fill="white"/>
<path d="M20.7156 17.4328C20.7672 17.3676 20.8043 17.2921 20.8245 17.2114C20.8447 17.1307 20.8476 17.0467 20.8328 16.9648C20.8316 16.9483 20.829 16.9318 20.825 16.9156C20.8242 16.9117 20.825 16.9078 20.8234 16.9031H20.8227C20.8096 16.8626 20.7882 16.8252 20.7598 16.7935C20.7314 16.7617 20.6967 16.7363 20.6578 16.7187C20.5484 16.6641 20.3859 16.6641 20.2227 16.6641H19.1367V17.5336H20.2227C20.3859 17.5336 20.5492 17.5336 20.6578 17.4789C20.6734 17.4711 20.6891 17.4594 20.7023 17.4477C20.7023 17.4477 20.7086 17.4422 20.7156 17.4336V17.4328ZM37.1172 25.0844C37.1172 24.7047 37.0094 24.3242 36.8461 24.0531V21.6078H36.8438V21.4445H34.2281C33.8891 21.4445 33.4781 21.7711 33.4781 21.7711V21.4445H30.9789C30.5984 21.4445 30.1102 21.5539 29.893 21.7711V21.4445H25.4375V21.7703C25.1117 21.4992 24.5141 21.4445 24.2422 21.4445H21.3086V21.7703C21.0375 21.4992 20.3852 21.4445 20.0586 21.4445H16.8L16.0391 22.2594L15.3328 21.4445H10.4453V26.932H15.2258L16.0109 26.1461L16.6914 26.932H19.7344V25.682H20.0062C20.3859 25.682 20.875 25.682 21.2555 25.5188V26.9859H23.7V25.5734H23.8078C23.9719 25.5734 23.9719 25.5734 23.9719 25.7367V26.9859H31.3594C31.8484 26.9859 32.3367 26.8766 32.6086 26.6602V26.9859H34.9445C35.4328 26.9859 35.9227 26.9312 36.2484 26.7141C36.7484 26.4141 37.0641 25.8828 37.1109 25.2492L37.1172 25.193L37.1141 25.1898C37.1164 25.1547 37.118 25.1195 37.118 25.0844H37.1172ZM20.0062 24.7586H18.9195V26.1711H17.1328L16.0938 24.9758L16.0898 24.9797L16.0391 24.9211L14.8438 26.1711H11.3672V22.3688H14.8984L15.8633 23.425L16.0664 23.6461L16.0938 23.618L17.2344 22.368H20.1133C20.6727 22.368 21.2984 22.5063 21.5352 23.075C21.5641 23.1875 21.5805 23.3125 21.5805 23.4547C21.5805 24.5406 20.8195 24.7594 20.0055 24.7594L20.0062 24.7586ZM25.4383 24.7039C25.5469 24.8672 25.6008 25.0844 25.6008 25.4109V26.1711H24.6773V25.682C24.6773 25.4648 24.6773 25.0844 24.5148 24.9211C24.4055 24.7586 24.1883 24.7586 23.8625 24.7586H22.8852V26.1711H21.9617V22.3141H24.0258C24.4602 22.3141 24.8406 22.3141 25.1125 22.4773C25.2655 22.5637 25.392 22.6903 25.4781 22.8435C25.5641 22.9966 25.6066 23.1705 25.6008 23.3461C25.6008 23.9438 25.2211 24.2695 24.9492 24.3789C25.2211 24.4867 25.3836 24.5953 25.4383 24.7047V24.7039ZM29.1867 23.1289H27.068V23.8352H29.132V24.5953H27.068V25.3562H29.1867V26.1711H26.1445V22.3141H29.1867V23.1289ZM31.468 26.1711H29.7297V25.3562H31.468C31.6305 25.3562 31.7398 25.3562 31.8484 25.2469C31.9164 25.1727 31.955 25.0763 31.957 24.9758C31.957 24.8664 31.9023 24.7586 31.8484 24.7047C31.7938 24.65 31.6852 24.5953 31.5219 24.5953C30.6531 24.5414 29.6211 24.5953 29.6211 23.4008C29.6211 22.8578 29.9469 22.2602 30.925 22.2602H32.7172V23.1836H31.0336C30.8703 23.1836 30.7617 23.1836 30.6531 23.2383C30.5445 23.2922 30.5445 23.4008 30.5445 23.5094C30.5445 23.6727 30.6531 23.7266 30.7617 23.7805C30.8711 23.8352 30.9789 23.8352 31.0875 23.8352H31.5766C32.0656 23.8352 32.3914 23.9438 32.6086 24.1609C32.7719 24.3242 32.8805 24.5961 32.8805 24.9758C32.8805 25.7906 32.3914 26.1711 31.468 26.1711ZM36.1398 25.7906C35.9227 26.0078 35.5422 26.1711 34.9992 26.1711H33.2609V25.3562H34.9992C35.1617 25.3562 35.2711 25.3562 35.3797 25.2469C35.4336 25.193 35.4883 25.0844 35.4883 24.9758C35.4883 24.8664 35.4336 24.7586 35.3789 24.7047C35.3242 24.65 35.2164 24.5953 35.0531 24.5953C34.1844 24.5414 33.1523 24.5953 33.1523 23.4008C33.1523 22.8852 33.4477 22.418 34.1758 22.2797C34.2633 22.2672 34.3555 22.2602 34.4563 22.2602H36.2484V23.1828H34.5641C34.4016 23.1828 34.293 23.1828 34.1844 23.2375C34.116 23.3118 34.0771 23.4084 34.075 23.5094C34.075 23.6727 34.1297 23.7266 34.293 23.7805C34.4016 23.8352 34.5102 23.8352 34.6187 23.8352H35.1078C35.3453 23.8352 35.5242 23.8641 35.6891 23.9219C35.8391 23.9766 36.3375 24.1992 36.4492 24.7813C36.4586 24.8422 36.4656 24.9063 36.4656 24.9766C36.4656 25.3023 36.357 25.5734 36.1398 25.7906Z" fill="white"/>
<path d="M87 32.2031C86.9979 32.8296 86.7476 33.4297 86.3039 33.8719C85.8602 34.3142 85.2593 34.5625 84.6328 34.5625H49.3672C48.7407 34.5625 48.1398 34.3142 47.6961 33.8719C47.2524 33.4297 47.0021 32.8296 47 32.2031V9.34375C47.0021 8.71729 47.2524 8.11719 47.6961 7.67494C48.1398 7.2327 48.7407 6.98437 49.3672 6.98438H84.6328C85.2593 6.98437 85.8602 7.2327 86.3039 7.67494C86.7476 8.11719 86.9979 8.71729 87 9.34375V32.2031Z" fill="#0099DF"/>
<path opacity="0.1" d="M48.6797 32.2031V9.34375C48.6818 8.71729 48.9321 8.11719 49.3758 7.67494C49.8195 7.2327 50.4204 6.98437 51.0469 6.98438H49.3672C48.7407 6.98437 48.1398 7.2327 47.6961 7.67494C47.2524 8.11719 47.0021 8.71729 47 9.34375V32.2031C47.0021 32.8296 47.2524 33.4297 47.6961 33.8719C48.1398 34.3142 48.7407 34.5625 49.3672 34.5625H51.0469C50.4204 34.5625 49.8195 34.3142 49.3758 33.8719C48.9321 33.4297 48.6818 32.8296 48.6797 32.2031Z" fill="#202121"/>
<path d="M73.1481 19.0977C73.1481 17.6914 73.7966 16.4336 74.8122 15.6055C74.1537 15.0735 73.3581 14.7388 72.5174 14.64C71.6766 14.5412 70.8251 14.6825 70.0612 15.0473C69.2974 15.4122 68.6524 15.9859 68.2009 16.7019C67.7494 17.418 67.5098 18.2472 67.5098 19.0938C67.5098 19.9403 67.7494 20.7695 68.2009 21.4856C68.6524 22.2016 69.2974 22.7753 70.0612 23.1402C70.8251 23.505 71.6766 23.6463 72.5174 23.5475C73.3581 23.4487 74.1537 23.114 74.8122 22.582C74.2924 22.1622 73.8731 21.6314 73.5852 21.0285C73.2972 20.4256 73.1479 19.7658 73.1481 19.0977Z" fill="#EA001B"/>
<path d="M77.6328 14.6094C76.6048 14.6109 75.6087 14.9668 74.8125 15.6172C75.3341 16.0367 75.755 16.5679 76.0442 17.1715C76.3333 17.7752 76.4834 18.4361 76.4834 19.1055C76.4834 19.7748 76.3333 20.4357 76.0442 21.0394C75.755 21.6431 75.3341 22.1742 74.8125 22.5937C75.3705 23.0432 76.028 23.3525 76.7301 23.4956C77.4321 23.6387 78.1582 23.6115 78.8476 23.4162C79.537 23.221 80.1696 22.8634 80.6923 22.3735C81.2151 21.8835 81.6128 21.2754 81.8523 20.6001C82.0917 19.9248 82.1658 19.202 82.0685 18.4921C81.9711 17.7823 81.7051 17.1061 81.2926 16.5202C80.8802 15.9343 80.3334 15.4558 79.698 15.1247C79.0626 14.7936 78.3571 14.6196 77.6406 14.6172L77.6328 14.6094Z" fill="#F79F1A"/>
<path d="M76.4766 19.1016C76.4766 17.6953 75.8282 16.4375 74.8125 15.6094C74.2909 16.0289 73.8701 16.5601 73.5809 17.1637C73.2917 17.7674 73.1416 18.4283 73.1416 19.0977C73.1416 19.767 73.2917 20.4279 73.5809 21.0316C73.8701 21.6353 74.2909 22.1664 74.8125 22.5859C75.3324 22.1662 75.7516 21.6353 76.0396 21.0324C76.3275 20.4295 76.4768 19.7697 76.4766 19.1016Z" fill="#FF5F01"/>
<path d="M59.9531 21.1797C59.9531 21.4922 59.7031 21.75 59.3828 21.75H52.3125C52 21.75 51.7344 21.4922 51.7344 21.1797V15.6563C51.7344 15.3438 51.9922 15.0859 52.3125 15.0859H59.3906C59.7031 15.0859 59.9609 15.3438 59.9609 15.6563V21.1797H59.9531Z" fill="#FFC715"/>
<path d="M60.0312 26.6406H51.7266C51.5536 26.6406 51.3876 26.5719 51.2653 26.4496C51.1429 26.3272 51.0742 26.1613 51.0742 25.9883C51.0742 25.8153 51.1429 25.6493 51.2653 25.527C51.3876 25.4047 51.5536 25.3359 51.7266 25.3359H60.0312C60.2043 25.3359 60.3702 25.4047 60.4925 25.527C60.6149 25.6493 60.6836 25.8153 60.6836 25.9883C60.6836 26.1613 60.6149 26.3272 60.4925 26.4496C60.3702 26.5719 60.2043 26.6406 60.0312 26.6406ZM60.0312 29.3672H51.7266C51.5525 29.3672 51.3856 29.298 51.2625 29.175C51.1395 29.0519 51.0703 28.885 51.0703 28.7109C51.0703 28.5369 51.1395 28.37 51.2625 28.2469C51.3856 28.1238 51.5525 28.0547 51.7266 28.0547H60.0312C60.2043 28.0547 60.3702 28.1234 60.4925 28.2458C60.6149 28.3681 60.6836 28.534 60.6836 28.707C60.6836 28.88 60.6149 29.046 60.4925 29.1683C60.3702 29.2906 60.2043 29.3594 60.0312 29.3594V29.3672Z" fill="#34495E"/>
<path d="M53.9453 21.75H55.25V15.0859H53.9453V16.6563H51.7266V17.9609H53.9531V18.875H51.7266V20.1797H53.9531V21.1016L53.9453 21.75ZM59.3047 17.9609H59.9531V16.6563H58.0547V15.0859H56.7656V19.5313C56.7656 19.8906 57.0547 20.1797 57.4141 20.1797H59.9609V18.875H58.0625V17.9609H59.3125H59.3047Z" fill="#FFA617"/>
<path opacity="0.1" d="M52.9375 21.1797V15.6563C52.9375 15.3438 53.1875 15.0859 53.5 15.0859H52.3125C52 15.0859 51.7344 15.3438 51.7344 15.6563V21.1797C51.7344 21.4922 51.9922 21.75 52.3125 21.75H53.5078C53.1953 21.75 52.9375 21.4922 52.9375 21.1797Z" fill="#202121"/>
<path d="M134 32.2031C133.998 32.8296 133.748 33.4297 133.304 33.8719C132.86 34.3142 132.259 34.5625 131.633 34.5625H96.3672C95.7407 34.5625 95.1398 34.3142 94.6961 33.8719C94.2524 33.4297 94.0021 32.8296 94 32.2031V9.34375C94.0021 8.71729 94.2524 8.11719 94.6961 7.67494C95.1398 7.2327 95.7407 6.98437 96.3672 6.98438H131.633C132.259 6.98437 132.86 7.2327 133.304 7.67494C133.748 8.11719 133.998 8.71729 134 9.34375V32.2031Z" fill="white"/>
<path d="M102.875 20.9297L101.938 16.4297C101.781 15.8047 101.312 15.6172 100.727 15.5938H96.4219L96.3828 15.8047C99.7422 16.6172 101.953 18.5781 102.875 20.9297Z" fill="#F79F1A"/>
<path d="M112.859 15.6875H110.07L108.336 25.8828H111.117L112.859 15.6875ZM104.57 25.875L108.945 15.6953H106.008L103.281 22.6484L102.992 21.6016C102.461 20.3359 100.938 18.5156 99.1406 17.375L101.633 25.875H104.57ZM120.797 22.5547C120.797 21.3906 120.055 20.5078 118.453 19.7813C117.484 19.3125 116.891 19 116.891 18.5156C116.891 18.0938 117.398 17.6406 118.484 17.6406C119.398 17.625 120.055 17.8281 120.57 18.0313L120.82 18.1484L121.188 15.9297C120.641 15.7266 119.781 15.5078 118.695 15.5078C115.953 15.5078 114.016 16.8906 114 18.8672C113.984 20.3359 115.383 21.1484 116.438 21.6406C117.516 22.1406 117.883 22.4531 117.875 22.9063C117.867 23.5859 117.016 23.8984 116.211 23.8984C115.102 23.8984 114.508 23.7422 113.594 23.3594L113.242 23.2031L112.852 25.4844C113.5 25.7656 114.695 26.0156 115.945 26.0312C118.867 26.0312 120.766 24.6641 120.789 22.5469L120.797 22.5547ZM124.094 24.3594H127.656L127.992 25.8906H130.57L128.32 15.6953H126.188C125.516 15.6953 125.016 15.8828 124.727 16.5391L120.602 25.8906H123.523L124.102 24.3594H124.094ZM126 19.4141L126.375 18.4453L126.562 19.3203L127.203 22.2656H124.898L126 19.4141ZM131.633 6.98438H96.3672C95.7407 6.98437 95.1398 7.2327 94.6961 7.67494C94.2524 8.11719 94.0021 8.71729 94 9.34375V11.7969H134V9.34375C133.998 8.71729 133.748 8.11719 133.304 7.67494C132.86 7.2327 132.259 6.98437 131.633 6.98438Z" fill="#059BBF"/>
<path d="M131.633 34.5625H96.3672C95.7407 34.5625 95.1398 34.3142 94.6961 33.8719C94.2524 33.4297 94.0021 32.8296 94 32.2031V29.75H134V32.2031C133.998 32.8296 133.748 33.4297 133.304 33.8719C132.86 34.3142 132.259 34.5625 131.633 34.5625Z" fill="#F79F1A"/>
<path opacity="0.1" d="M95.6797 32.2031V9.34375C95.6818 8.71729 95.9321 8.11719 96.3758 7.67494C96.8195 7.2327 97.4204 6.98437 98.0469 6.98438H96.3672C95.7407 6.98437 95.1398 7.2327 94.6961 7.67494C94.2524 8.11719 94.0021 8.71729 94 9.34375V32.2031C94.0021 32.8296 94.2524 33.4297 94.6961 33.8719C95.1398 34.3142 95.7407 34.5625 96.3672 34.5625H98.0469C97.4204 34.5625 96.8195 34.3142 96.3758 33.8719C95.9321 33.4297 95.6818 32.8296 95.6797 32.2031Z" fill="#202121"/>
<path d="M181 32.2055C181 32.8327 180.751 33.4342 180.307 33.8777C179.864 34.3212 179.262 34.5703 178.635 34.5703H143.364C142.737 34.5701 142.136 34.3209 141.692 33.8774C141.249 33.4339 141 32.8325 141 32.2055V9.34922C141 8.72202 141.249 8.12052 141.693 7.67702C142.136 7.23353 142.738 6.98438 143.365 6.98438H178.635C178.946 6.98438 179.253 7.04554 179.54 7.16439C179.827 7.28323 180.088 7.45743 180.307 7.67702C180.527 7.89662 180.701 8.15732 180.82 8.44423C180.939 8.73115 181 9.03866 181 9.34922V32.2055Z" fill="#34495E"/>
<path opacity="0.15" d="M142.681 32.2055V9.34922C142.681 8.72216 142.93 8.12077 143.374 7.6773C143.817 7.23383 144.418 6.98458 145.045 6.98438H143.364C142.737 6.98458 142.136 7.23383 141.692 7.6773C141.249 8.12077 141 8.72216 141 9.34922V32.2055C141 32.8327 141.249 33.4342 141.693 33.8777C142.136 34.3212 142.738 34.5703 143.365 34.5703H145.046C144.419 34.5703 143.817 34.3212 143.374 33.8777C142.93 33.4342 142.681 32.8327 142.681 32.2055Z" fill="#202121"/>
<path d="M165.171 20.758C165.174 20.3733 165.101 19.9918 164.955 19.6356C164.81 19.2794 164.595 18.9556 164.324 18.683C164.051 18.4109 163.726 18.1959 163.369 18.0505C163.012 17.9052 162.63 17.8323 162.244 17.8361H162.233C161.847 17.8334 161.464 17.9075 161.106 18.0542C160.749 18.2009 160.424 18.4171 160.15 18.6904C159.877 18.9637 159.661 19.2886 159.514 19.6463C159.367 20.0039 159.293 20.3871 159.296 20.7736C159.296 21.1593 159.372 21.5413 159.52 21.8977C159.667 22.2541 159.884 22.5779 160.156 22.8507C160.429 23.1235 160.753 23.3399 161.109 23.4875C161.466 23.6351 161.848 23.7111 162.233 23.7111C162.62 23.7138 163.003 23.6396 163.361 23.493C163.718 23.3463 164.043 23.13 164.317 22.8567C164.59 22.5834 164.806 22.2585 164.953 21.9009C165.1 21.5433 165.174 21.1601 165.171 20.7736V20.758Z" fill="#F26E21"/>
<path d="M158.75 22.018C158.311 22.4586 157.906 22.6297 157.468 22.6391C156.406 22.6297 155.624 21.8422 155.624 20.7195C155.624 20.1539 155.838 19.6914 156.176 19.2953C156.494 18.9938 156.904 18.7984 157.375 18.7984C157.883 18.7984 158.279 18.968 158.731 19.4203V18.1195C158.279 17.8938 157.883 17.7812 157.375 17.7812C156.667 17.8324 155.995 18.1121 155.461 18.5781C155.306 18.7137 155.167 18.8656 155.046 19.0312C154.666 19.5234 154.436 20.125 154.436 20.775C154.436 22.4133 155.736 23.6562 157.375 23.6562L157.398 23.6555L157.431 23.6562C157.883 23.6562 158.279 23.5438 158.787 23.3172L158.75 22.018C158.73 22.0367 158.768 22.0547 158.75 22.0727V22.018ZM168.879 18.5906L167.601 21.7367L166.132 18.0078H164.945L167.261 23.7133H167.882L170.312 18.0078H169.125L168.879 18.5906ZM170.764 20.493V23.5445H173.871V22.6398H171.894V21.1156H173.814V20.1547H171.894V18.968H173.871V18.007H170.764V20.493ZM145.229 18.0078H143.646V23.5445H145.229C146.076 23.5445 146.697 23.318 147.206 22.9227C147.523 22.6615 147.778 22.3338 147.954 21.9627C148.13 21.5917 148.222 21.1864 148.223 20.7758C148.223 19.1375 147.036 18.0078 145.229 18.0078H145.229ZM146.528 22.1883C146.189 22.4703 145.737 22.6398 145.059 22.6398H144.72V18.968H145.003C145.681 18.968 146.132 19.0813 146.471 19.4195C146.666 19.5882 146.822 19.7965 146.929 20.0304C147.036 20.2643 147.092 20.5184 147.093 20.7758C147.15 21.2836 146.924 21.8492 146.529 22.1883H146.528ZM148.732 18.007H149.805V23.5437H148.732V18.007ZM152.516 20.1539C151.839 19.9281 151.669 19.7586 151.669 19.4766C151.669 19.1375 152.008 18.8547 152.46 18.8547C152.799 18.8547 153.081 18.968 153.364 19.307L153.929 18.5727C153.477 18.1717 152.894 17.9506 152.29 17.9516C151.329 17.9516 150.539 18.6289 150.539 19.5328C150.539 20.3242 150.879 20.6625 151.895 21.0586C152.347 21.2273 152.517 21.2844 152.629 21.3969C152.733 21.4498 152.82 21.5308 152.88 21.6307C152.94 21.7306 152.97 21.8453 152.968 21.9617C152.968 22.4141 152.629 22.7531 152.121 22.7531C151.612 22.7531 151.16 22.4703 150.935 22.0188L150.257 22.6969C150.764 23.4312 151.386 23.7695 152.178 23.7695C153.307 23.7695 154.098 23.0352 154.098 21.9617C154.098 21.0016 153.759 20.6062 152.516 20.1539ZM176.921 21.2273C177.769 21.0586 178.221 20.493 178.221 19.6461C178.221 18.6297 177.486 18.0078 176.244 18.0078H174.605V23.5445H175.679V21.3406H175.848L177.373 23.5437H178.673L176.921 21.2273ZM176.018 20.55H175.679V18.8547H176.018C176.696 18.8547 177.091 19.1375 177.091 19.7023C177.091 20.2672 176.696 20.5492 176.018 20.5492V20.55Z" fill="#E7E8E3"/>
</svg>
