<svg width="40" height="41" viewBox="0 0 40 41" fill="none" xmlns="http://www.w3.org/2000/svg">
<path d="M23.1675 34.8316C22.8475 34.8316 22.1054 34.6871 22.1054 33.3405V27.1604H1.65056C1.59321 27.1695 1.51751 27.1776 1.42804 27.1776C1.06443 27.1776 0.728357 27.0399 0.482895 26.7876C0.160583 26.4595 0 25.9594 0 25.301V15.8014C0 14.4881 0.93138 14.1406 1.4246 14.1406H21.6741V8.47657C21.6741 6.89368 22.4277 6.65625 22.8784 6.65625C23.5988 6.65625 24.3157 7.34217 24.4522 7.47981C24.9454 7.84341 37.9698 17.663 39.4013 19.0934C39.9209 19.613 40.0126 20.1372 39.9977 20.4836C39.9633 21.3174 39.321 21.8852 39.2487 21.9483L24.7619 33.937C24.6013 34.109 23.8672 34.8316 23.1675 34.8316Z" fill="#E6193C"/>
</svg>
