<svg width="31" height="31" viewBox="0 0 31 31" fill="none" xmlns="http://www.w3.org/2000/svg">
<path d="M19.8048 0.195312C20.0223 0.232813 20.1761 0.397813 20.3298 0.562813L22.6623 3.01156L24.7586 5.20156L26.6823 7.21531L28.3436 8.95531C28.8536 9.48781 29.3561 10.0278 29.8736 10.5491C30.2373 10.9166 30.2261 11.7191 29.8436 12.0941C29.1873 12.7428 28.5573 13.4291 27.9161 14.1003L25.7673 16.3466L23.8998 18.3041L22.1373 20.1453L20.4423 21.9266C20.3786 21.9941 20.3111 22.0541 20.2548 22.1253C19.8086 22.6878 19.1936 22.2716 19.0661 21.7391C19.0398 21.6266 19.0323 21.5066 19.0323 21.3903V16.6916V16.4966C18.7173 16.4966 18.4136 16.4853 18.1136 16.5003C17.5998 16.5191 17.0823 16.5416 16.5686 16.5866C16.0832 16.6265 15.5992 16.6816 15.1173 16.7516C14.5961 16.8266 14.0748 16.9128 13.5573 17.0103C12.6536 17.1791 11.7648 17.4228 10.8836 17.7228C9.63529 18.145 8.4389 18.7074 7.3173 19.3991C4.41543 21.1896 2.18925 23.8919 0.987305 27.0828C0.594024 28.0752 0.315954 29.1095 0.158555 30.1653C0.158555 30.1766 0.147305 30.1916 0.143555 30.2028V29.5203C0.151055 29.4753 0.162305 29.4303 0.166055 29.3816C0.226055 28.6241 0.267305 27.8591 0.342305 27.1053C0.462305 25.9278 0.649805 24.7616 0.886055 23.6103C1.37928 21.0638 2.19064 18.5894 3.30105 16.2453C4.41856 13.9428 5.8248 11.9328 7.6023 10.3016C8.87638 9.12751 10.3411 8.17895 11.9336 7.49656C12.9329 7.05601 13.9799 6.7326 15.0536 6.53281C15.8205 6.39476 16.5923 6.28469 17.3673 6.20281C17.8923 6.14656 18.4211 6.15406 18.9461 6.13531C18.9723 6.13531 18.9986 6.12781 19.0323 6.12031V5.92906V1.20031C19.0323 0.881562 19.1186 0.615313 19.3323 0.431563C19.4561 0.326563 19.6173 0.277812 19.7636 0.206563C19.7748 0.195312 19.7898 0.195312 19.8048 0.195312Z" fill="#1AB22C"/>
</svg>
