<svg xmlns="http://www.w3.org/2000/svg" version="1.1" xmlns:xlink="http://www.w3.org/1999/xlink" width="512" height="512" x="0" y="0" viewBox="0 0 520 520" style="enable-background:new 0 0 512 512" xml:space="preserve" class=""><g><path d="M214.745 422.43a10 10 0 0 1-8.624-4.938c-32.705-55.718-119.9-174.367-120.78-175.558a10 10 0 0 1 1.026-13.04l26.817-26.5a10 10 0 0 1 12.753-1.086l86.726 60.558C270.752 187.394 324.7 135.944 360.2 105.577c39.993-34.208 65.458-49.606 66.523-50.245a10 10 0 0 1 5.145-1.425h43.382a10 10 0 0 1 6.651 17.468c-123.175 109.711-257.132 343.653-258.47 346a10 10 0 0 1-8.624 5.051z" data-name="30-Checked" fill="#ffffff" opacity="1" data-original="#000000" class=""></path><g data-name="26-Checked"><circle cx="214.835" cy="113.845" r="7.954" fill="#ffffff" opacity="1" data-original="#000000" class=""></circle><circle cx="214.835" cy="457.936" r="7.954" fill="#ffffff" opacity="1" data-original="#000000" class=""></circle><circle cx="42.976" cy="285.891" r="7.954" fill="#ffffff" opacity="1" data-original="#000000" class=""></circle><circle cx="386.694" cy="285.891" r="7.954" fill="#ffffff" opacity="1" data-original="#000000" class=""></circle><circle cx="93.18" cy="407.545" r="7.954" fill="#ffffff" opacity="1" data-original="#000000" class=""></circle><circle cx="93.312" cy="164.368" r="7.954" fill="#ffffff" opacity="1" data-original="#000000" class=""></circle><circle cx="336.358" cy="407.413" r="7.954" fill="#ffffff" opacity="1" data-original="#000000" class=""></circle><circle cx="65.839" cy="199.868" r="7.954" fill="#ffffff" opacity="1" data-original="#000000" class=""></circle><circle cx="363.831" cy="371.913" r="7.954" fill="#ffffff" opacity="1" data-original="#000000" class=""></circle><circle cx="128.905" cy="434.725" r="7.954" fill="#ffffff" opacity="1" data-original="#000000" class=""></circle><circle cx="170.306" cy="119.707" r="7.954" fill="#ffffff" opacity="1" data-original="#000000" class=""></circle><circle cx="259.364" cy="452.074" r="7.954" fill="#ffffff" opacity="1" data-original="#000000" class=""></circle><circle cx="48.832" cy="330.371" r="7.954" fill="#ffffff" opacity="1" data-original="#000000" class=""></circle><circle cx="380.838" cy="241.41" r="7.954" fill="#ffffff" opacity="1" data-original="#000000" class=""></circle><circle cx="65.839" cy="371.913" r="7.954" fill="#ffffff" opacity="1" data-original="#000000" class=""></circle><circle cx="300.764" cy="434.725" r="7.954" fill="#ffffff" opacity="1" data-original="#000000" class=""></circle><circle cx="128.905" cy="137.056" r="7.954" fill="#ffffff" opacity="1" data-original="#000000" class=""></circle><circle cx="259.364" cy="119.707" r="7.954" fill="#ffffff" opacity="1" data-original="#000000" class=""></circle><circle cx="170.306" cy="452.074" r="7.954" fill="#ffffff" opacity="1" data-original="#000000" class=""></circle><circle cx="380.838" cy="330.371" r="7.954" fill="#ffffff" opacity="1" data-original="#000000" class=""></circle><circle cx="48.832" cy="241.41" r="7.954" fill="#ffffff" opacity="1" data-original="#000000" class=""></circle></g></g></svg>